# This file uses centimeters as units for non-parametric coordinates.

mtllib arrow.mtl
g default
v -1.844257 1.000000 0.000000
v -1.991318 0.250000 0.000000
v -0.397243 0.250000 -0.500000
v -0.397243 0.750000 0.500000
v -0.397243 0.000000 0.000000
v 2.707753 0.690399 -0.038757
v 2.707753 0.309601 0.038757
v 2.679626 0.111535 0.000000
v 0.972008 1.353883 0.000000
v 0.889447 0.155000 0.690000
v 0.889447 1.190000 0.000000
v 0.889447 0.845000 -0.690000
v 0.889447 -0.190000 0.000000
v 0.972008 0.073059 -0.835988
v 0.972008 0.926941 0.835988
v 0.972008 -0.353883 0.000000
v 1.845602 1.115781 0.000000
v 1.845602 0.192109 -0.434744
v 1.845602 0.807891 0.434744
v 1.845602 -0.115781 0.000000
v 2.679626 0.888465 0.000000
v -1.991318 0.750000 0.000000
v -1.844257 0.750000 -0.500000
v -1.844257 0.250000 0.500000
v 2.707753 0.309601 -0.038757
v 2.707753 0.690399 0.038757
v 0.889447 0.845000 0.690000
v 0.889447 0.155000 -0.690000
v 0.972008 0.926941 -0.835988
v 0.972008 0.073059 0.835988
v 1.845602 0.807891 -0.434744
v 1.845602 0.192109 0.434744
v -0.397243 1.000000 0.000000
v -1.844257 0.250000 -0.500000
v -1.844257 0.750000 0.500000
v -1.844257 0.000000 0.000000
v -0.397243 0.750000 -0.500000
v -0.397243 0.250000 0.500000
v -1.844257 0.062500 -0.375000
v -1.954553 0.750000 -0.375000
v -1.844257 0.937500 0.375000
v -1.954553 0.250000 0.375000
v -1.954553 0.062500 0.000000
v -1.954553 0.937500 0.000000
v -0.397243 0.937500 -0.375000
v -0.397243 0.062500 0.375000
v 0.574406 0.773750 -0.547500
v 0.574406 0.226250 0.547500
v 0.574406 -0.047500 0.000000
v 0.574406 1.047500 0.000000
v 2.749944 0.315350 0.000000
v 2.700722 0.835115 -0.029068
v 2.700722 0.164884 0.029068
v 0.972008 -0.247147 -0.626991
v 0.972008 1.247147 0.626991
v 0.903455 0.912985 -0.821497
v 0.903455 0.087015 0.821497
v 0.903455 -0.325971 0.000000
v 0.903455 1.325971 0.000000
v 0.889447 1.103750 0.517500
v 0.889447 -0.103750 0.517500
v 0.889447 1.103750 -0.517500
v 0.889447 -0.103750 -0.517500
v 0.972008 1.247147 -0.626991
v 0.972008 -0.247147 0.626991
v 1.845602 -0.038809 -0.326058
v 1.845602 1.038809 0.326058
v 1.238319 0.890649 -0.713670
v 1.238319 0.109351 0.713670
v 1.238319 -0.281299 0.000000
v 1.238319 1.281299 0.000000
v 1.845602 1.038809 -0.326058
v 1.845602 -0.038809 0.326058
v 2.700721 0.164884 -0.029068
v 2.700721 0.835115 0.029068
v 2.450024 0.725522 -0.157132
v 2.450024 0.274478 0.157132
v 2.442993 0.047040 0.000000
v 2.442993 0.952960 0.000000
v -1.954553 0.250000 -0.375000
v -1.954553 0.750000 0.375000
v 0.574406 0.226250 -0.547500
v 0.574406 0.773750 0.547500
v 2.749944 0.684650 0.000000
v 0.903455 0.087015 -0.821497
v 0.903455 0.912985 0.821497
v 1.238319 0.109351 -0.713670
v 1.238319 0.890649 0.713670
v 2.450024 0.274478 -0.157132
v 2.450024 0.725522 0.157132
v -1.991318 0.500000 0.000000
v -0.397243 0.500000 -0.500000
v -0.397243 0.500000 0.500000
v 2.707753 0.500000 -0.038757
v 2.707753 0.500000 0.038757
v 0.889447 0.500000 0.690000
v 0.889447 0.500000 -0.690000
v 0.972008 0.500000 -0.835988
v 0.972008 0.500000 0.835988
v 1.845602 0.500000 -0.434744
v 1.845602 0.500000 0.434744
v -0.397243 0.062500 -0.375000
v -0.397243 0.937500 0.375000
v -1.844257 0.937500 -0.375000
v -1.844257 0.062500 0.375000
v -1.844257 0.500000 -0.500000
v -1.844257 0.500000 0.500000
v -1.408973 1.000000 0.000000
v -1.408973 0.250000 -0.500000
v -1.408973 0.750000 0.500000
v -1.408973 0.000000 0.000000
v -1.408973 0.750000 -0.500000
v -1.408973 0.250000 0.500000
v -1.925958 0.111111 -0.277778
v -1.925958 0.888889 -0.277778
v -1.925958 0.111111 0.277778
v -1.925958 0.888889 0.277778
v 0.574406 0.020938 -0.410625
v 0.574406 0.979063 -0.410625
v 0.574406 0.979063 0.410625
v 0.574406 0.020938 0.410625
v 2.723380 0.205527 0.000000
v 2.723380 0.794473 0.000000
v 0.903455 -0.222724 -0.616123
v 0.903455 1.222724 -0.616123
v 0.903455 1.222724 0.616123
v 0.903455 -0.222724 0.616123
v 1.238319 1.183636 -0.535253
v 1.238319 -0.183636 0.535253
v 1.238319 -0.183636 -0.535253
v 1.238319 1.183636 0.535253
v 2.448267 0.895142 -0.117849
v 2.448267 0.104858 0.117849
v 2.448267 0.104858 -0.117849
v 2.448267 0.895142 0.117849
v -1.954553 0.500000 -0.375000
v -1.954553 0.500000 0.375000
v 0.574406 0.500000 -0.547500
v 0.574406 0.500000 0.547500
v 2.749944 0.500000 0.000000
v 0.903455 0.500000 -0.821497
v 0.903455 0.500000 0.821497
v 1.238319 0.500000 -0.713671
v 1.238319 0.500000 0.713671
v 2.450025 0.500000 -0.157132
v 2.450025 0.500000 0.157132
v -1.408973 0.062500 -0.375000
v -1.408973 0.937500 0.375000
v -1.408973 0.937500 -0.375000
v -1.408973 0.062500 0.375000
v -1.408973 0.500000 -0.500000
v -1.408973 0.500000 0.500000
v 0.731926 1.015625 0.441964
v 0.731926 -0.015625 0.441964
v 0.731926 1.015625 -0.441964
v 0.731926 -0.015625 -0.441964
v 0.731926 0.500000 0.589286
v 0.731926 0.500000 -0.589286
v 0.731926 0.205357 0.589286
v 0.731926 1.089286 0.000000
v 0.731926 0.794643 -0.589286
v 0.731926 -0.089286 0.000000
v 0.731926 0.794643 0.589286
v 0.731926 0.205357 -0.589286
vt 0.128713 0.500000
vt 0.128713 0.004950
vt 0.252475 0.004950
vt 0.252475 0.500000
vt 0.252475 0.995049
vt 0.128713 0.995049
vt 0.004950 0.995049
vt 0.004950 0.500000
vt 0.004950 0.004950
vt 0.004950 0.500000
vt 0.004950 0.004950
vt 0.004950 0.004950
vt 0.004950 0.500000
vt 0.004950 0.995049
vt 0.004950 0.995049
vt 0.004950 0.995049
vt 0.004950 0.500000
vt 0.004950 0.004950
vt 0.376238 0.995049
vt 0.376238 0.995049
vt 0.252475 0.995049
vt 0.252475 0.995049
vt 0.252475 0.995049
vt 0.376238 0.995049
vt 0.500000 0.995049
vt 0.500000 0.995049
vt 0.500000 0.995049
vt 0.376238 0.004950
vt 0.376238 0.004950
vt 0.252475 0.004950
vt 0.252475 0.004950
vt 0.376238 0.004950
vt 0.500000 0.004950
vt 0.500000 0.004950
vt 0.500000 0.004950
vt 0.376238 0.500000
vt 0.376238 0.004950
vt 0.252475 0.004950
vt 0.252475 0.500000
vt 0.500000 0.500000
vt 0.500000 0.004950
vt 0.933168 0.995049
vt 0.995049 0.995049
vt 0.995049 0.995049
vt 0.933168 0.995049
vt 0.871287 0.995049
vt 0.871287 0.995049
vt 0.871287 0.995049
vt 0.933168 0.995049
vt 0.995049 0.995049
vt 0.933168 0.004950
vt 0.995049 0.004950
vt 0.995049 0.004950
vt 0.933168 0.004950
vt 0.871287 0.004950
vt 0.871287 0.004950
vt 0.871287 0.004950
vt 0.933168 0.004950
vt 0.995049 0.004950
vt 0.912541 0.087459
vt 0.871287 0.128713
vt 0.871287 0.252475
vt 0.933168 0.128713
vt 0.623762 0.623762
vt 0.623762 0.252475
vt 0.747525 0.500000
vt 0.747525 0.747525
vt 0.747525 0.995049
vt 0.623762 0.995049
vt 0.500000 0.995049
vt 0.500000 0.500000
vt 0.500000 0.004950
vt 0.500000 0.004950
vt 0.500000 0.004950
vt 0.500000 0.004950
vt 0.500000 0.004950
vt 0.500000 0.004950
vt 0.500000 0.004950
vt 0.500000 0.004950
vt 0.500000 0.004950
vt 0.500000 0.004950
vt 0.500000 0.500000
vt 0.500000 0.995049
vt 0.500000 0.995049
vt 0.500000 0.500000
vt 0.500000 0.004950
vt 0.500000 0.004950
vt 0.500000 0.995049
vt 0.500000 0.995049
vt 0.500000 0.995049
vt 0.500000 0.995049
vt 0.500000 0.995049
vt 0.500000 0.995049
vt 0.500000 0.500000
vt 0.500000 0.500000
vt 0.500000 0.995049
vt 0.500000 0.995049
vt 0.500000 0.995049
vt 0.500000 0.500000
vt 0.623762 0.995049
vt 0.623762 0.995049
vt 0.500000 0.995049
vt 0.623762 0.995049
vt 0.747525 0.995049
vt 0.747525 0.995049
vt 0.747525 0.995049
vt 0.623762 0.004950
vt 0.623762 0.004950
vt 0.500000 0.004950
vt 0.623762 0.004950
vt 0.747525 0.004950
vt 0.747525 0.004950
vt 0.747525 0.004950
vt 0.623762 0.376238
vt 0.623762 0.004950
vt 0.623762 0.747525
vt 0.747525 0.500000
vt 0.747525 0.252475
vt 0.747525 0.004950
vt 0.809406 0.809406
vt 0.809406 0.623762
vt 0.871287 0.747525
vt 0.871287 0.871287
vt 0.809406 0.995049
vt 0.809406 0.995049
vt 0.809406 0.995049
vt 0.809406 0.995049
vt 0.871287 0.995049
vt 0.871287 0.995049
vt 0.809406 0.004950
vt 0.809406 0.004950
vt 0.809406 0.004950
vt 0.871287 0.004950
vt 0.871287 0.004950
vt 0.809406 0.190594
vt 0.809406 0.004950
vt 0.809406 0.376238
vt 0.912541 0.912541
vt 0.933168 0.871287
vt 0.004950 0.500000
vt 0.004950 0.004950
vt 0.004950 0.995049
vt 0.128713 0.995049
vt 0.252475 0.995049
vt 0.128713 0.995049
vt 0.128713 0.004950
vt 0.128713 0.004950
vt 0.252475 0.004950
vt 0.128713 0.004950
vt 0.933168 0.995049
vt 0.995049 0.995049
vt 0.995049 0.995049
vt 0.933168 0.995049
vt 0.933168 0.004950
vt 0.995049 0.004950
vt 0.995049 0.004950
vt 0.933168 0.004950
vt 0.500000 0.004950
vt 0.500000 0.004950
vt 0.500000 0.995049
vt 0.500000 0.995049
vt 0.623762 0.995049
vt 0.747525 0.995049
vt 0.623762 0.004950
vt 0.747525 0.004950
vt 0.809406 0.995049
vt 0.809406 0.004950
vt 0.376238 0.500000
vt 0.500000 0.500000
vt 0.500000 0.995049
vt 0.376238 0.995049
vt 0.128713 0.995049
vt 0.128713 0.995049
vt 0.128713 0.004950
vt 0.128713 0.500000
vt 0.376238 0.995049
vt 0.500000 0.995049
vt 0.376238 0.004950
vt 0.500000 0.004950
vn -0.291861 0.956283 0.018444
vn -0.370090 0.788775 0.490782
vn 0.000000 1.000000 0.000000
vn 0.000000 0.839751 0.542971
vn -0.354617 0.803895 -0.477493
vn 0.000000 0.839751 -0.542971
vn -0.793788 0.532188 -0.294410
vn -0.824115 0.566363 0.008185
vn -0.804356 0.521001 0.285603
vn -0.993314 -0.115014 0.009967
vn -0.900309 -0.192133 0.390548
vn -1.000000 0.000000 0.000000
vn -0.916978 0.000000 0.398938
vn -0.920945 -0.157376 -0.356501
vn -0.916978 0.000000 -0.398938
vn -0.804356 -0.521001 -0.285603
vn -0.824116 -0.566362 -0.008185
vn -0.793788 -0.532188 0.294410
vn -0.026908 -0.289659 -0.956752
vn -0.027885 -0.839443 -0.542732
vn 0.000000 -0.289784 -0.957092
vn 0.000000 -0.839751 -0.542971
vn -0.024421 0.000000 -0.999702
vn 0.000000 0.000000 -1.000000
vn -0.153465 0.000000 -0.988154
vn -0.168457 -0.285095 -0.943580
vn -0.174410 -0.827377 -0.533880
vn -0.026908 0.289659 0.956752
vn -0.027885 0.839443 0.542732
vn 0.000000 0.289784 0.957092
vn -0.024421 0.000000 0.999702
vn 0.000000 0.000000 1.000000
vn -0.153465 0.000000 0.988154
vn -0.168456 0.285095 0.943580
vn -0.174410 0.827377 0.533881
vn -0.024422 -0.999702 0.000000
vn -0.027885 -0.839443 0.542732
vn 0.000000 -1.000000 0.000000
vn 0.000000 -0.839751 0.542971
vn -0.153509 -0.988147 0.000000
vn -0.174410 -0.827377 0.533880
vn 0.608397 0.073383 -0.790233
vn 0.994716 0.083701 0.059454
vn 0.553683 0.000000 -0.832728
vn 1.000000 0.000000 0.000000
vn 0.417382 0.000000 -0.908731
vn 0.418140 0.152467 -0.895496
vn 0.729620 0.359010 -0.582036
vn 0.379846 0.534806 -0.754784
vn 0.958304 0.262041 0.113962
vn 0.608396 -0.073383 0.790233
vn 0.994716 -0.083701 -0.059453
vn 0.553683 -0.000000 0.832728
vn 0.417382 -0.000000 0.908731
vn 0.418140 -0.152467 0.895496
vn 0.729619 -0.359011 0.582037
vn 0.379846 -0.534806 0.754784
vn 0.958304 -0.262042 -0.113962
vn 0.635027 -0.768019 0.082991
vn 0.335026 -0.930478 0.148217
vn 0.377840 -0.601208 -0.704121
vn 0.629715 -0.447398 -0.635054
vn 0.005123 0.834263 0.551342
vn 0.369243 0.759735 0.535221
vn -0.049752 0.998752 -0.004265
vn 0.278795 0.960236 -0.014832
vn 0.367165 0.769374 -0.522736
vn 0.004174 0.836637 -0.547742
vn -0.806387 0.494693 -0.324066
vn -0.799100 0.601198 -0.001073
vn -0.814767 0.484459 0.318519
vn -0.770288 -0.181571 0.611301
vn -0.742294 0.000000 0.670074
vn -0.867874 -0.140967 0.476365
vn -0.850411 0.000000 0.526119
vn -0.434741 -0.258481 0.862663
vn -0.402352 0.000000 0.915485
vn -0.447470 -0.753226 0.482101
vn -0.876185 -0.407141 0.257946
vn -0.806388 -0.494693 0.324065
vn -0.852481 0.522758 -0.000006
vn -0.876185 0.407141 -0.257946
vn -0.447470 0.753226 -0.482101
vn -0.402569 0.915390 0.000000
vn -0.447470 0.753226 0.482101
vn -0.876088 0.407259 0.258089
vn -0.770288 0.181571 -0.611301
vn -0.742294 0.000000 -0.670074
vn -0.867874 0.140967 -0.476365
vn -0.850411 0.000000 -0.526119
vn -0.434741 0.258481 -0.862663
vn -0.402352 0.000000 -0.915485
vn -0.402569 -0.915390 0.000000
vn -0.447470 -0.753226 -0.482100
vn -0.852481 -0.522758 0.000006
vn -0.876088 -0.407259 -0.258089
vn -0.799100 -0.601197 0.001073
vn -0.814767 -0.484459 -0.318519
vn 0.005124 -0.834263 -0.551342
vn 0.088505 -0.274512 -0.957502
vn -0.775632 -0.176843 -0.605906
vn 0.110896 0.000000 -0.993832
vn 0.420084 -0.222115 -0.879883
vn 0.417382 0.000000 -0.908731
vn 0.369243 -0.759735 -0.535222
vn 0.088505 0.274512 0.957502
vn -0.775632 0.176843 0.605906
vn 0.110896 0.000000 0.993832
vn 0.420084 0.222115 0.879883
vn 0.417382 0.000000 0.908731
vn 0.004174 -0.836637 0.547742
vn -0.049752 -0.998752 0.004264
vn 0.278795 -0.960236 0.014832
vn 0.367165 -0.769374 0.522736
vn 0.387894 0.702544 0.596632
vn 0.377840 0.601208 0.704121
vn 0.283619 0.956812 -0.063807
vn 0.335026 0.930478 -0.148217
vn 0.358009 0.714155 -0.601508
vn 0.387894 -0.702544 -0.596632
vn 0.417970 -0.152499 -0.895570
vn 0.417382 0.000000 -0.908731
vn 0.405200 -0.072118 -0.911379
vn 0.417970 0.152499 0.895570
vn 0.417382 -0.000000 0.908731
vn 0.405200 0.072118 0.911379
vn 0.283620 -0.956812 0.063807
vn 0.358009 -0.714155 0.601508
vn 0.635027 0.768019 -0.082992
vn 0.629716 0.447398 0.635053
vn -0.920945 0.157376 0.356501
vn -0.993314 0.115014 -0.009967
vn -0.900309 0.192133 -0.390548
vn -0.393551 0.306291 -0.866778
vn 0.000000 0.289784 -0.957092
vn -0.411322 0.000000 -0.911490
vn -0.393551 -0.306291 0.866778
vn -0.354617 -0.803895 0.477493
vn 0.000000 -0.289784 0.957092
vn -0.411322 0.000000 0.911490
vn 0.540200 -0.062093 -0.839243
vn 0.540200 0.062093 0.839243
vn -0.867797 0.140989 0.476499
vn -0.434741 0.258482 0.862663
vn -0.867797 -0.140989 -0.476499
vn -0.434741 -0.258482 -0.862663
vn 0.088126 0.285471 -0.954327
vn 0.424230 0.252286 -0.869701
vn 0.088126 -0.285471 0.954327
vn 0.424231 -0.252286 0.869701
vn 0.420255 0.222083 -0.879809
vn 0.420255 -0.222083 0.879809
vn -0.024422 0.999702 0.000000
vn -0.153509 0.988147 0.000000
vn -0.027885 0.839443 -0.542732
vn -0.174410 0.827377 -0.533881
vn -0.443603 -0.255110 -0.859148
vn -0.370090 -0.788775 -0.490782
vn -0.443602 0.255110 0.859148
vn -0.291861 -0.956283 -0.018444
vn -0.026908 0.289659 -0.956752
vn -0.168457 0.285095 -0.943580
vn -0.026908 -0.289659 0.956752
vn -0.168457 -0.285095 0.943580
s 1
g ggg:Cube
usemtl lambert16SG
f 1/1/1 41/2/2 108/4/3
f 108/4/3 41/2/2 148/3/4
f 1/1/1 108/4/3 104/6/5
f 104/6/5 108/4/3 149/5/6
f 104/6/5 115/7/7 1/1/1
f 1/1/1 115/7/7 44/8/8
f 44/8/8 117/9/9 1/1/1
f 1/1/1 117/9/9 41/2/2
f 2/10/10 42/11/11 91/13/12
f 91/13/12 42/11/11 137/12/13
f 2/10/10 91/13/12 80/15/14
f 80/15/14 91/13/12 136/14/15
f 80/15/14 114/16/16 2/10/10
f 2/10/10 114/16/16 43/17/17
f 43/17/17 116/18/18 2/10/10
f 2/10/10 116/18/18 42/11/11
f 3/19/19 102/20/20 109/22/21
f 109/22/21 102/20/20 147/21/22
f 3/19/19 109/22/21 92/24/23
f 92/24/23 109/22/21 151/23/24
f 92/24/23 138/25/25 3/19/19
f 3/19/19 138/25/25 82/26/26
f 3/19/19 82/26/26 102/20/20
f 102/20/20 82/26/26 118/27/27
f 4/28/28 103/29/29 110/30/30
f 110/30/30 103/29/29 148/3/4
f 4/28/28 110/30/30 93/32/31
f 93/32/31 110/30/30 152/31/32
f 93/32/31 139/33/33 4/28/28
f 4/28/28 139/33/33 83/34/34
f 4/28/28 83/34/34 103/29/29
f 103/29/29 83/34/34 120/35/35
f 5/36/36 46/37/37 111/39/38
f 111/39/38 46/37/37 150/38/39
f 5/36/36 111/39/38 102/20/20
f 102/20/20 111/39/38 147/21/22
f 5/36/36 102/20/20 49/40/40
f 49/40/40 102/20/20 118/27/27
f 5/36/36 49/40/40 46/37/37
f 46/37/37 49/40/40 121/41/41
f 6/42/42 84/43/43 94/45/44
f 94/45/44 84/43/43 140/44/45
f 94/45/44 145/46/46 6/42/42
f 6/42/42 145/46/46 76/47/47
f 6/42/42 76/47/47 52/49/48
f 52/49/48 76/47/47 132/48/49
f 52/49/48 123/50/50 6/42/42
f 6/42/42 123/50/50 84/43/43
f 7/51/51 51/52/52 95/54/53
f 95/54/53 51/52/52 140/53/45
f 95/54/53 146/55/54 7/51/51
f 7/51/51 146/55/54 77/56/55
f 7/51/51 77/56/55 53/58/56
f 53/58/56 77/56/55 133/57/57
f 53/58/56 122/59/58 7/51/51
f 7/51/51 122/59/58 51/52/52
f 53/58/56 133/57/57 8/60/59
f 8/60/59 133/57/57 78/61/60
f 78/61/60 134/62/61 8/60/59
f 8/60/59 134/62/61 74/63/62
f 8/60/59 74/63/62 53/58/56
f 53/58/56 74/63/62 122/59/58
f 55/65/63 131/66/64 9/64/65
f 9/64/65 131/66/64 71/67/66
f 71/67/66 128/68/67 9/64/65
f 9/64/65 128/68/67 64/69/68
f 64/69/68 125/70/69 9/64/65
f 9/64/65 125/70/69 59/71/70
f 59/71/70 126/72/71 9/64/65
f 9/64/65 126/72/71 55/65/63
f 57/74/72 142/75/73 10/73/74
f 10/73/74 142/75/73 96/76/75
f 10/73/74 96/76/75 159/78/76
f 159/78/76 96/76/75 157/77/77
f 159/78/76 154/79/78 10/73/74
f 10/73/74 154/79/78 61/80/79
f 10/73/74 61/80/79 57/74/72
f 57/74/72 61/80/79 127/81/80
f 11/82/81 59/71/70 62/83/82
f 62/83/82 59/71/70 125/70/69
f 62/83/82 155/84/83 11/82/81
f 11/82/81 155/84/83 160/85/84
f 160/85/84 153/86/85 11/82/81
f 11/82/81 153/86/85 60/87/86
f 11/82/81 60/87/86 59/71/70
f 59/71/70 60/87/86 126/72/71
f 56/89/87 141/90/88 12/88/89
f 12/88/89 141/90/88 97/91/90
f 12/88/89 97/91/90 161/93/91
f 161/93/91 97/91/90 158/92/92
f 161/93/91 155/84/83 12/88/89
f 12/88/89 155/84/83 62/83/82
f 12/88/89 62/83/82 56/89/87
f 56/89/87 62/83/82 125/70/69
f 162/95/93 156/96/94 13/94/95
f 13/94/95 156/96/94 63/97/96
f 13/94/95 63/97/96 58/99/97
f 58/99/97 63/97/96 124/98/98
f 13/94/95 58/99/97 61/80/79
f 61/80/79 58/99/97 127/81/80
f 61/80/79 154/79/78 13/94/95
f 13/94/95 154/79/78 162/95/93
f 54/101/99 124/98/98 14/100/100
f 14/100/100 124/98/98 85/102/101
f 14/100/100 85/102/101 98/103/102
f 98/103/102 85/102/101 141/90/88
f 14/100/100 98/103/102 87/105/103
f 87/105/103 98/103/102 143/104/104
f 14/100/100 87/105/103 54/101/99
f 54/101/99 87/105/103 130/106/105
f 55/108/63 126/72/71 15/107/106
f 15/107/106 126/72/71 86/109/107
f 15/107/106 86/109/107 99/110/108
f 99/110/108 86/109/107 142/75/73
f 15/107/106 99/110/108 88/112/109
f 88/112/109 99/110/108 144/111/110
f 15/107/106 88/112/109 55/108/63
f 55/108/63 88/112/109 131/113/64
f 65/115/111 127/81/80 16/114/112
f 16/114/112 127/81/80 58/99/97
f 58/99/97 124/98/98 16/114/112
f 16/114/112 124/98/98 54/116/99
f 54/116/99 130/117/105 16/114/112
f 16/114/112 130/117/105 70/118/113
f 70/118/113 129/119/114 16/114/112
f 16/114/112 129/119/114 65/115/111
f 67/121/115 135/122/116 17/120/117
f 17/120/117 135/122/116 79/123/118
f 79/123/118 132/48/49 17/120/117
f 17/120/117 132/48/49 72/124/119
f 17/120/117 72/124/119 71/67/66
f 71/67/66 72/124/119 128/68/67
f 17/120/117 71/67/66 67/121/115
f 67/121/115 71/67/66 131/66/64
f 66/126/120 130/106/105 18/125/121
f 18/125/121 130/106/105 87/105/103
f 87/105/103 143/104/104 18/125/121
f 18/125/121 143/104/104 100/127/122
f 18/125/121 100/127/122 89/128/123
f 89/128/123 100/127/122 145/46/46
f 89/128/123 134/129/61 18/125/121
f 18/125/121 134/129/61 66/126/120
f 67/131/115 131/113/64 19/130/124
f 19/130/124 131/113/64 88/112/109
f 88/112/109 144/111/110 19/130/124
f 19/130/124 144/111/110 101/132/125
f 19/130/124 101/132/125 90/133/126
f 90/133/126 101/132/125 146/55/54
f 90/133/126 135/134/116 19/130/124
f 19/130/124 135/134/116 67/131/115
f 20/135/127 73/136/128 70/118/113
f 70/118/113 73/136/128 129/119/114
f 20/135/127 70/118/113 66/137/120
f 66/137/120 70/118/113 130/117/105
f 66/137/120 134/62/61 20/135/127
f 20/135/127 134/62/61 78/61/60
f 78/61/60 133/57/57 20/135/127
f 20/135/127 133/57/57 73/136/128
f 21/138/129 75/139/130 52/49/48
f 52/49/48 75/139/130 123/50/50
f 52/49/48 132/48/49 21/138/129
f 21/138/129 132/48/49 79/123/118
f 79/123/118 135/122/116 21/138/129
f 21/138/129 135/122/116 75/139/130
f 81/141/131 117/9/9 22/140/132
f 22/140/132 117/9/9 44/8/8
f 44/8/8 115/7/7 22/140/132
f 22/140/132 115/7/7 40/142/133
f 22/140/132 40/142/133 91/13/12
f 91/13/12 40/142/133 136/14/15
f 22/140/132 91/13/12 81/141/131
f 81/141/131 91/13/12 137/12/13
f 23/143/134 40/142/133 104/6/5
f 104/6/5 40/142/133 115/7/7
f 23/143/134 104/6/5 112/144/135
f 112/144/135 104/6/5 149/5/6
f 23/143/134 112/144/135 106/145/136
f 106/145/136 112/144/135 151/23/24
f 23/143/134 106/145/136 40/142/133
f 40/142/133 106/145/136 136/14/15
f 24/146/137 42/11/11 105/147/138
f 105/147/138 42/11/11 116/18/18
f 24/146/137 105/147/138 113/148/139
f 113/148/139 105/147/138 150/38/39
f 24/146/137 113/148/139 107/149/140
f 107/149/140 113/148/139 152/31/32
f 24/146/137 107/149/140 42/11/11
f 42/11/11 107/149/140 137/12/13
f 51/151/52 122/152/58 25/150/141
f 25/150/141 122/152/58 74/153/62
f 25/150/141 74/153/62 89/128/123
f 89/128/123 74/153/62 134/129/61
f 89/128/123 145/46/46 25/150/141
f 25/150/141 145/46/46 94/45/44
f 25/150/141 94/45/44 51/151/52
f 51/151/52 94/45/44 140/44/45
f 84/155/43 123/156/50 26/154/142
f 26/154/142 123/156/50 75/157/130
f 26/154/142 75/157/130 90/133/126
f 90/133/126 75/157/130 135/134/116
f 90/133/126 146/55/54 26/154/142
f 26/154/142 146/55/54 95/54/53
f 26/154/142 95/54/53 84/155/43
f 84/155/43 95/54/53 140/53/45
f 27/158/143 86/109/107 60/87/86
f 60/87/86 86/109/107 126/72/71
f 60/87/86 153/86/85 27/158/143
f 27/158/143 153/86/85 163/159/144
f 27/158/143 163/159/144 96/76/75
f 96/76/75 163/159/144 157/77/77
f 96/76/75 142/75/73 27/158/143
f 27/158/143 142/75/73 86/109/107
f 28/160/145 85/102/101 63/97/96
f 63/97/96 85/102/101 124/98/98
f 63/97/96 156/96/94 28/160/145
f 28/160/145 156/96/94 164/161/146
f 28/160/145 164/161/146 97/91/90
f 97/91/90 164/161/146 158/92/92
f 97/91/90 141/90/88 28/160/145
f 28/160/145 141/90/88 85/102/101
f 56/89/87 125/70/69 29/162/147
f 29/162/147 125/70/69 64/69/68
f 29/162/147 64/69/68 68/163/148
f 68/163/148 64/69/68 128/68/67
f 29/162/147 68/163/148 98/103/102
f 98/103/102 68/163/148 143/104/104
f 29/162/147 98/103/102 56/89/87
f 56/89/87 98/103/102 141/90/88
f 57/74/72 127/81/80 30/164/149
f 30/164/149 127/81/80 65/115/111
f 30/164/149 65/115/111 69/165/150
f 69/165/150 65/115/111 129/119/114
f 30/164/149 69/165/150 99/110/108
f 99/110/108 69/165/150 144/111/110
f 30/164/149 99/110/108 57/74/72
f 57/74/72 99/110/108 142/75/73
f 68/163/148 128/68/67 31/166/151
f 31/166/151 128/68/67 72/124/119
f 72/124/119 132/48/49 31/166/151
f 31/166/151 132/48/49 76/47/47
f 31/166/151 76/47/47 100/127/122
f 100/127/122 76/47/47 145/46/46
f 100/127/122 143/104/104 31/166/151
f 31/166/151 143/104/104 68/163/148
f 69/165/150 129/119/114 32/167/152
f 32/167/152 129/119/114 73/136/128
f 73/136/128 133/57/57 32/167/152
f 32/167/152 133/57/57 77/56/55
f 32/167/152 77/56/55 101/132/125
f 101/132/125 77/56/55 146/55/54
f 101/132/125 144/111/110 32/167/152
f 32/167/152 144/111/110 69/165/150
f 33/168/153 103/29/29 50/169/154
f 50/169/154 103/29/29 120/35/35
f 33/168/153 50/169/154 45/171/155
f 45/171/155 50/169/154 119/170/156
f 33/168/153 45/171/155 108/4/3
f 108/4/3 45/171/155 149/5/6
f 33/168/153 108/4/3 103/29/29
f 103/29/29 108/4/3 148/3/4
f 34/172/157 39/173/158 80/15/14
f 80/15/14 39/173/158 114/16/16
f 34/172/157 80/15/14 106/145/136
f 106/145/136 80/15/14 136/14/15
f 34/172/157 106/145/136 109/22/21
f 109/22/21 106/145/136 151/23/24
f 34/172/157 109/22/21 39/173/158
f 39/173/158 109/22/21 147/21/22
f 35/174/159 41/2/2 81/141/131
f 81/141/131 41/2/2 117/9/9
f 35/174/159 81/141/131 107/149/140
f 107/149/140 81/141/131 137/12/13
f 35/174/159 107/149/140 110/30/30
f 110/30/30 107/149/140 152/31/32
f 35/174/159 110/30/30 41/2/2
f 41/2/2 110/30/30 148/3/4
f 105/147/138 116/18/18 36/175/160
f 36/175/160 116/18/18 43/17/17
f 43/17/17 114/16/16 36/175/160
f 36/175/160 114/16/16 39/173/158
f 36/175/160 39/173/158 111/39/38
f 111/39/38 39/173/158 147/21/22
f 36/175/160 111/39/38 105/147/138
f 105/147/138 111/39/38 150/38/39
f 37/176/161 45/171/155 47/177/162
f 47/177/162 45/171/155 119/170/156
f 47/177/162 138/25/25 37/176/161
f 37/176/161 138/25/25 92/24/23
f 37/176/161 92/24/23 112/144/135
f 112/144/135 92/24/23 151/23/24
f 37/176/161 112/144/135 45/171/155
f 45/171/155 112/144/135 149/5/6
f 38/178/163 46/37/37 48/179/164
f 48/179/164 46/37/37 121/41/41
f 48/179/164 139/33/33 38/178/163
f 38/178/163 139/33/33 93/32/31
f 38/178/163 93/32/31 113/148/139
f 113/148/139 93/32/31 152/31/32
f 38/178/163 113/148/139 46/37/37
f 46/37/37 113/148/139 150/38/39
f 139/33/33 48/179/164 157/77/77
f 157/77/77 48/179/164 159/78/76
f 48/179/164 121/41/41 159/78/76
f 159/78/76 121/41/41 154/79/78
f 155/84/83 119/170/156 160/85/84
f 160/85/84 119/170/156 50/169/154
f 50/169/154 120/35/35 160/85/84
f 160/85/84 120/35/35 153/86/85
f 138/25/25 47/177/162 158/92/92
f 158/92/92 47/177/162 161/93/91
f 47/177/162 119/170/156 161/93/91
f 161/93/91 119/170/156 155/84/83
f 49/40/40 118/27/27 162/95/93
f 162/95/93 118/27/27 156/96/94
f 154/79/78 121/41/41 162/95/93
f 162/95/93 121/41/41 49/40/40
f 153/86/85 120/35/35 163/159/144
f 163/159/144 120/35/35 83/34/34
f 163/159/144 83/34/34 157/77/77
f 157/77/77 83/34/34 139/33/33
f 156/96/94 118/27/27 164/161/146
f 164/161/146 118/27/27 82/26/26
f 164/161/146 82/26/26 158/92/92
f 158/92/92 82/26/26 138/25/25
