# This file uses centimeters as units for non-parametric coordinates.

mtllib component.mtl
g default
v -1.509334 -1.509333 0.000000
v -1.435462 -1.509333 0.466410
v -1.221077 -1.509333 0.887164
v -0.887164 -1.509333 1.221077
v -0.466410 -1.509333 1.435462
v -0.000000 -1.509333 1.509334
v -1.509334 1.509333 0.000000
v -1.435462 1.509333 0.466410
v -1.221077 1.509333 0.887164
v -0.887164 1.509333 1.221077
v -0.466410 1.509333 1.435462
v -0.000000 1.509333 1.509334
v 0.000000 -1.509333 0.000000
v 0.000000 1.509333 0.000000
vt 0.415625 0.234375
vt 0.351397 0.204534
vt 0.373591 0.248091
vt 0.408159 0.282659
vt 0.451716 0.304853
vt 0.525000 0.312500
vt 0.500000 0.312500
vt 0.512500 0.312500
vt 0.525000 0.312500
vt 0.537500 0.312500
vt 0.415625 0.765625
vt 0.500000 0.687500
vt 0.512500 0.687500
vt 0.525000 0.687500
vt 0.537500 0.687500
vt 0.525000 0.687500
vt 0.451716 0.695147
vt 0.408159 0.717341
vt 0.373591 0.751909
vt 0.351397 0.795466
vt 0.500000 0.156250
vt 0.500000 0.843750
vn -0.987688 0.000000 0.156434
vn -0.951056 0.000000 0.309017
vn -0.987688 0.000000 0.156434
vn -0.951056 0.000000 0.309017
vn -0.809017 0.000000 0.587785
vn -0.809017 0.000000 0.587785
vn -0.587785 0.000000 0.809017
vn -0.587785 0.000000 0.809017
vn -0.309017 0.000000 0.951057
vn -0.309017 0.000000 0.951056
vn -0.156434 0.000000 0.987688
vn -0.156435 0.000000 0.987688
vn 0.000000 -1.000000 0.000000
vn 0.000000 -1.000000 0.000000
vn 0.000000 -1.000000 0.000000
vn 0.000000 -1.000000 0.000000
vn 0.000000 -1.000000 0.000000
vn 0.000000 -1.000000 0.000000
vn 0.000000 -1.000000 0.000000
vn 0.000000 1.000000 0.000000
vn 0.000000 1.000000 0.000000
vn 0.000000 1.000000 0.000000
vn 0.000000 1.000000 0.000000
vn 0.000000 1.000000 0.000000
vn 0.000000 1.000000 0.000000
vn 0.000000 1.000000 0.000000
vn 1.000000 0.000000 0.000000
vn 1.000000 0.000000 0.000000
vn 1.000000 0.000000 0.000000
vn 1.000000 0.000000 0.000000
vn 0.000000 0.000000 -1.000000
vn 0.000000 0.000000 -1.000000
vn 0.000000 0.000000 -1.000000
vn 0.000000 0.000000 -1.000000
s 1
g pCylinder6
usemtl initialShadingGroup
f 1/1/1 2/7/2 7/11/3
f 7/11/3 2/7/2 8/12/4
f 2/7/2 3/8/5 8/12/4
f 8/12/4 3/8/5 9/13/6
f 3/8/5 4/9/7 9/13/6
f 9/13/6 4/9/7 10/14/8
f 4/9/7 5/10/9 10/14/8
f 10/14/8 5/10/9 11/15/10
f 5/10/9 6/6/11 11/15/10
f 11/15/10 6/6/11 12/16/12
s 2
f 2/2/13 1/1/14 13/21/15
f 3/3/16 2/2/13 13/21/15
f 4/4/17 3/3/16 13/21/15
f 5/5/18 4/4/17 13/21/15
f 6/6/19 5/5/18 13/21/15
s 3
f 7/11/20 8/20/21 14/22/22
f 8/20/21 9/19/23 14/22/22
f 9/19/23 10/18/24 14/22/22
f 10/18/24 11/17/25 14/22/22
f 11/17/25 12/16/26 14/22/22
s 4
f 6/6/27 13/21/28 12/16/29
f 12/16/29 13/21/28 14/22/30
s 5
f 13/21/31 1/1/32 14/22/33
f 14/22/33 1/1/32 7/11/34
